<?xml version="1.0" encoding="utf-8"?>
<!-- Generator: Adobe Illustrator 16.0.0, SVG Export Plug-In . SVG Version: 6.00 Build 0)  -->
<!DOCTYPE svg PUBLIC "-//W3C//DTD SVG 1.1//EN" "http://www.w3.org/Graphics/SVG/1.1/DTD/svg11.dtd">
<svg version="1.1" id="Layer_1" xmlns="http://www.w3.org/2000/svg" xmlns:xlink="http://www.w3.org/1999/xlink" x="0px" y="0px"
	 width="612px" height="300px" viewBox="0 0 612 300" enable-background="new 0 0 612 300" xml:space="preserve">
<g>
	<path fill="#1A73AC" d="M168.477,214.244c8.98,2.16,18.236,2.734,27.518,1.707c9.998-1.108,19.543-4.016,28.367-8.647l3.074,5.863
		c-9.557,5.012-19.891,8.161-30.713,9.36c-10.043,1.112-20.068,0.492-29.793-1.847L168.477,214.244z M158.604,211.002l-2.483,6.136
		l2.191-6.246L158.604,211.002z M156.365,210.109l-2.533,6.116c-2.109-0.875-4.212-1.844-6.244-2.883l3.009-5.896
		C152.474,208.408,154.415,209.304,156.365,210.109 M146.871,205.421c0.613,0.353,1.23,0.698,1.852,1.038l-3.163,5.813
		c-0.67-0.363-1.335-0.736-1.996-1.119L146.871,205.421z M141.509,202.027l-3.764,5.444c-0.627-0.434-1.249-0.876-1.866-1.323
		l3.896-5.352C140.347,201.214,140.925,201.623,141.509,202.027 M138.083,199.529l-4.041,5.242c-1.813-1.398-3.59-2.881-5.278-4.406
		l4.439-4.909C134.763,196.865,136.405,198.238,138.083,199.529 M131.654,194.02l-4.575,4.78c-0.551-0.526-1.097-1.06-1.634-1.601
		l4.693-4.668C130.636,193.033,131.141,193.527,131.654,194.02 M124.49,186.217c0.444,0.55,0.894,1.098,1.351,1.635l-5.05,4.279
		c-0.492-0.582-0.978-1.172-1.456-1.768L124.49,186.217z"/>
	<path fill="#1A73AC" d="M198.048,232.819c-9.461,1.049-18.842,0.729-28.026-0.935c-2.766-0.505-5.518-1.13-8.244-1.879
		l-4.322-3.615c-35.04-11.666-60.308-42.908-64.373-79.599c-3.903-35.231,11.795-69.043,41.007-88.889l3.719,0.133
		c12.087-7.789,24.948-12.178,39.351-13.774c16.579-1.836,33.325,0.816,48.425,7.674l3.519-2.006
		c21.043,9.553,36.691,25.923,45.65,46.054h4.44c-9.862-22.313-27.692-40.762-50.418-51.079l2.253,1.057l-0.883-4.072
		c-16.908-7.674-35.65-10.646-54.201-8.591c-16.113,1.785-31.147,7.11-44.683,15.828l-0.918,3.269
		C99.092,73.627,82.33,109.829,86.506,147.52c4.347,39.248,31.376,72.673,68.858,85.15l5.859-0.529
		c2.823,0.774,5.668,1.416,8.534,1.936c9.352,1.687,18.903,2.002,28.536,0.936c27.031-2.994,51.286-16.785,67.707-38.158
		l-0.12-3.527C249.823,215.469,225.391,229.79,198.048,232.819"/>
	<path fill="#1A73AC" d="M87.41,96.357l-12.357-4.744c-0.279,0.734-0.554,1.465-0.817,2.206l12.463,4.454
		C86.93,97.632,87.165,96.994,87.41,96.357"/>
	<path fill="#1A73AC" d="M92.532,85.018l-11.721-6.145c-1.076,2.05-2.108,4.166-3.067,6.286l12.057,5.458
		C90.656,88.728,91.576,86.843,92.532,85.018"/>
	<path fill="#1A73AC" d="M96.669,77.826l-11.207-7.042c-1.238,1.971-2.432,4.002-3.548,6.035l11.599,6.373
		C94.507,81.385,95.568,79.579,96.669,77.826"/>
	<path fill="#1A73AC" d="M101.359,70.97l-10.635-7.881c-0.459,0.623-0.915,1.247-1.365,1.876l10.77,7.694
		C100.534,72.091,100.944,71.527,101.359,70.97"/>
	<path fill="#1A73AC" d="M109.35,61.423l-9.635-9.071c-1.585,1.684-3.148,3.443-4.648,5.234l10.144,8.5
		C106.549,64.491,107.943,62.924,109.35,61.423"/>
	<path fill="#1A73AC" d="M80.873,124.533l-13.182-1.196c-0.071,0.776-0.132,1.553-0.188,2.33l13.203,0.937
		C80.754,125.91,80.81,125.221,80.873,124.533"/>
	<path fill="#1A73AC" d="M84.758,104.194l-12.695-3.742c-0.66,2.238-1.259,4.51-1.782,6.759l12.895,2.991
		C83.639,108.205,84.172,106.186,84.758,104.194"/>
	<path fill="#1A73AC" d="M82.721,112.229l-12.948-2.739c-0.482,2.273-0.903,4.597-1.246,6.898l13.091,1.96
		C81.922,116.307,82.294,114.25,82.721,112.229"/>
	<path fill="#1A73AC" d="M158.58,31.837l-3.473-12.77c-2.246,0.611-4.502,1.295-6.701,2.035l4.22,12.545
		C154.579,32.99,156.584,32.381,158.58,31.837"/>
	<path fill="#1A73AC" d="M146.785,35.809l-4.946-12.278c-0.725,0.293-1.448,0.592-2.165,0.898l5.202,12.172
		C145.506,36.331,146.145,36.067,146.785,35.809"/>
	<path fill="#1A73AC" d="M80.452,132.82l-13.234-0.155c-0.028,2.315,0.013,4.67,0.12,6.999l13.222-0.618
		C80.463,136.977,80.425,134.881,80.452,132.82"/>
	<path fill="#1A73AC" d="M166.669,29.975L164.2,16.97c-2.283,0.436-4.583,0.942-6.835,1.507l3.222,12.839
		C162.592,30.812,164.636,30.36,166.669,29.975"/>
	<path fill="#1A73AC" d="M174.886,28.743l-1.457-13.155c-0.775,0.086-1.544,0.181-2.316,0.278l1.709,13.128
		C173.508,28.905,174.197,28.82,174.886,28.743"/>
	<path fill="#1A73AC" d="M121.638,50.261l-8.102-10.464c-0.624,0.482-1.241,0.969-1.849,1.466l8.339,10.278
		C120.558,51.108,121.096,50.682,121.638,50.261"/>
	<path fill="#1A73AC" d="M139.21,39.219l-5.91-11.843c-2.086,1.042-4.168,2.158-6.182,3.317l6.597,11.472
		C135.507,41.136,137.354,40.146,139.21,39.219"/>
	<path fill="#1A73AC" d="M115.276,55.604l-8.901-9.799c-1.724,1.565-3.422,3.201-5.045,4.863l9.457,9.256
		C112.234,58.45,113.742,56.996,115.276,55.604"/>
	<path fill="#1A73AC" d="M131.925,43.219L125.1,31.878c-1.987,1.196-3.971,2.472-5.897,3.79l7.474,10.922
		C128.392,45.417,130.158,44.284,131.925,43.219"/>
	<path fill="#1A73AC" d="M84.025,161.59l-12.792,3.397c0.599,2.253,1.271,4.511,1.996,6.71l12.571-4.146
		C85.155,165.6,84.561,163.594,84.025,161.59"/>
	<path fill="#1A73AC" d="M248,47.685l7.66-10.792c-1.883-1.338-3.84-2.644-5.813-3.882l-7.033,11.213
		C244.577,45.329,246.322,46.491,248,47.685"/>
	<path fill="#1A73AC" d="M254.574,52.75l8.484-10.158c-0.596-0.498-1.2-0.992-1.808-1.479l-8.28,10.324
		C253.508,51.869,254.044,52.308,254.574,52.75"/>
	<path fill="#1A73AC" d="M247.852,31.788c-2-1.197-4.054-2.346-6.106-3.42l-6.125,11.733c1.825,0.953,3.651,1.974,5.428,3.043
		L247.852,31.788z"/>
	<path fill="#1A73AC" d="M263.656,61.278l9.608-9.105c-1.593-1.68-3.262-3.341-4.959-4.938l-9.067,9.644
		C260.752,58.301,262.237,59.781,263.656,61.278"/>
	<path fill="#1A73AC" d="M235.454,25.311c-0.706-0.317-1.416-0.628-2.126-0.93l-5.211,12.166c0.638,0.274,1.271,0.551,1.903,0.836
		L235.454,25.311z"/>
	<path fill="#1A73AC" d="M81.096,145.9c-0.177-1.598-0.317-3.19-0.42-4.777l-13.209,0.869c0.118,1.783,0.276,3.572,0.475,5.365
		l0.188,1.602l13.135-1.625L81.096,145.9z"/>
	<path fill="#1A73AC" d="M217.918,19.021c-2.237-0.61-4.528-1.163-6.812-1.639l-2.717,12.952c2.025,0.424,4.064,0.915,6.051,1.457
		L217.918,19.021z"/>
	<path fill="#1A73AC" d="M222.335,34.281l4.471-12.457c-2.191-0.788-4.431-1.516-6.653-2.17l-3.724,12.702
		C218.4,32.936,220.389,33.582,222.335,34.281"/>
	<path fill="#1A73AC" d="M269.133,67.529l10.287-8.332c-1.472-1.813-3.007-3.602-4.568-5.312l-9.781,8.915
		C266.459,64.322,267.825,65.914,269.133,67.529"/>
	<path fill="#1A73AC" d="M79.402,186.821c0.344,0.704,0.698,1.409,1.06,2.108l11.754-6.088c-0.318-0.61-0.626-1.228-0.928-1.844
		L79.402,186.821z"/>
	<path fill="#1A73AC" d="M204.207,16.145c-0.771-0.113-1.541-0.221-2.316-0.318l-1.682,13.126c0.686,0.088,1.371,0.183,2.055,0.284
		L204.207,16.145z"/>
	<path fill="#1A73AC" d="M86.47,169.52l-12.487,4.391c0.766,2.18,1.612,4.378,2.515,6.532l12.209-5.109
		C87.902,173.412,87.149,171.456,86.47,169.52"/>
	<path fill="#1A73AC" d="M82.212,153.484l-13.018,2.396c0.141,0.766,0.288,1.527,0.444,2.291l12.968-2.648
		C82.468,154.848,82.337,154.166,82.212,153.484"/>
	<path fill="#1A73AC" d="M274.109,74.196l10.897-7.511c-0.443-0.644-0.893-1.284-1.348-1.919l-10.743,7.729
		C273.319,73.056,273.715,73.623,274.109,74.196"/>
	<path fill="#1A73AC" d="M280.544,84.854l11.715-6.156c-1.071-2.044-2.232-4.097-3.442-6.109l-11.338,6.831
		C278.561,81.21,279.59,83.04,280.544,84.854"/>
	<path fill="#1A73AC" d="M194.925,15.136c-2.313-0.159-4.667-0.255-6.997-0.279l-0.137,13.237c2.073,0.022,4.166,0.104,6.222,0.247
		L194.925,15.136z"/>
	<path fill="#1A73AC" d="M185.718,28.093l-0.127-13.238c-2.308,0.023-4.66,0.114-6.989,0.272l0.886,13.206
		C181.567,28.194,183.661,28.113,185.718,28.093"/>
	<path fill="#1A73AC" d="M196.724,222.527c10.822-1.199,21.156-4.348,30.713-9.359l-3.074-5.865
		c-8.824,4.632-18.369,7.539-28.368,8.647c-9.281,1.028-18.538,0.453-27.517-1.705l-1.548,6.436
		C176.655,223.02,186.681,223.641,196.724,222.527"/>
	<polygon fill="#1A73AC" points="158.604,211.002 158.312,210.891 156.121,217.137 	"/>
	<path fill="#1A73AC" d="M153.833,216.226l2.533-6.116c-1.95-0.807-3.891-1.701-5.768-2.661l-3.01,5.896
		C149.62,214.381,151.722,215.351,153.833,216.226"/>
	<path fill="#1A73AC" d="M127.08,198.8l4.575-4.78c-0.513-0.492-1.018-0.986-1.516-1.488l-4.693,4.668
		C125.982,197.74,126.527,198.273,127.08,198.8"/>
	<path fill="#1A73AC" d="M134.042,204.771l4.041-5.241c-1.678-1.292-3.319-2.665-4.879-4.074l-4.44,4.908
		C130.453,201.891,132.229,203.373,134.042,204.771"/>
	<path fill="#1A73AC" d="M125.841,187.852c-0.457-0.537-0.908-1.084-1.351-1.635l-5.155,4.147c0.478,0.595,0.964,1.185,1.456,1.767
		L125.841,187.852z"/>
	<path fill="#1A73AC" d="M148.723,206.459c-0.621-0.339-1.239-0.686-1.851-1.039l-3.308,5.732c0.661,0.383,1.326,0.756,1.996,1.12
		L148.723,206.459z"/>
	<path fill="#1A73AC" d="M137.745,207.472l3.764-5.444c-0.584-0.404-1.161-0.813-1.734-1.229l-3.896,5.351
		C136.496,206.597,137.118,207.037,137.745,207.472"/>
	<path fill="#1A73AC" d="M177.875,52.396c-46.302,5.129-79.796,46.973-74.667,93.271c0.862,7.778,2.771,15.305,5.671,22.463
		c0.2-0.138,0.408-0.266,0.627-0.384c0.445-0.239,0.906-0.417,1.374-0.548c-2.801-6.939-4.645-14.234-5.479-21.773
		c-4.996-45.092,27.625-85.84,72.717-90.836c33.722-3.737,65.014,13.569,80.74,41.394h2.519
		C245.437,66.781,212.938,48.512,177.875,52.396"/>
	<path fill="#1A73AC" d="M244.652,195.242c0.405,0.325,0.783,0.696,1.114,1.125c0.13,0.168,0.248,0.342,0.36,0.517
		c8.207-7.99,14.599-17.433,18.935-27.73l-0.08-2.364h-1.332C259.437,177.379,253.014,187.084,244.652,195.242"/>
	<path fill="#1A73AC" d="M244.652,195.242c-2.366-1.898-5.806-2.014-8.311-0.076c-2.933,2.271-3.47,6.49-1.202,9.426
		c2.272,2.934,6.491,3.472,9.427,1.201c2.765-2.141,3.398-6.012,1.56-8.909c-0.112-0.175-0.23-0.349-0.36-0.517
		C245.436,195.938,245.058,195.567,244.652,195.242"/>
	<path fill="#1A73AC" d="M108.88,168.131c-2.794,1.912-3.759,5.66-2.125,8.711c1.755,3.269,5.826,4.5,9.096,2.748
		c3.269-1.752,4.501-5.823,2.749-9.092c-1.514-2.826-4.757-4.125-7.72-3.299c-0.468,0.131-0.928,0.31-1.374,0.549
		C109.287,167.865,109.08,167.994,108.88,168.131"/>
	<path fill="#1A73AC" d="M292.104,190.02c2.38-2.1,2.695-5.006,2.695-6.652c0-2.03-0.489-4.096-1.926-5.566
		c-2.205-2.311-5.217-2.381-9.031-2.416l-1.681,0.035l-7.248,0.07l-0.21,0.175c0.07,2.802,0.139,4.902,0.139,8.369
		c0,5.04-0.104,10.538-0.245,16.104l0.245,0.176c3.047-0.141,3.888-0.141,7.143-0.106l0.176-0.209
		c-0.071-1.927-0.105-3.082-0.105-4.552c0-1.051,0.034-2.102,0.034-3.151C285.521,192.296,289.478,192.33,292.104,190.02
		 M282.125,180.428c1.857,0,2.591,0,3.361,0.278c1.717,0.597,1.717,2.382,1.717,2.767c0,1.297-0.56,2.521-1.646,3.117
		c-0.876,0.489-2.136,0.524-3.432,0.524V180.428z"/>
	<path fill="#1A73AC" d="M312.199,189.424c1.154-0.523,2.521-1.153,3.465-3.15c0.387-0.805,0.805-2.029,0.805-3.711
		c0-3.115-1.539-4.936-2.45-5.637c-2.03-1.575-5.216-1.541-8.683-1.469l-1.82,0.033h-6.302l-0.174,0.176
		c0.245,3.256,0.384,5.285,0.384,10.888c0,4.518-0.105,9.032-0.175,13.55l0.175,0.21l7.212-0.106l0.21-0.209
		c-0.21-3.815-0.244-4.727-0.244-8.927l1.156-0.036l2.205,4.623l1.892,4.41l0.386,0.281l7.387-0.314l0.14-0.316l-2.382-4.096
		L312.199,189.424z M304.601,186.273l0.07-5.813c0.419,0,1.331-0.033,1.749-0.033c2.067,0,2.838,1.191,2.838,2.73
		C309.259,186.345,305.896,186.31,304.601,186.273"/>
	<path fill="#1A73AC" d="M329.947,200.697c3.012,0,7.563-0.699,10.084-4.971c1.541-2.625,1.715-6.266,1.68-8.191
		c-0.139-5.322-1.68-8.088-3.57-9.908c-2.381-2.242-5.848-2.696-8.088-2.696c-5.533,0-8.299,2.485-9.803,5.007
		c-1.47,2.45-1.819,5.391-1.819,8.262C318.431,196.217,322.488,200.697,329.947,200.697 M330.193,180.217
		c3.012,0,3.779,3.502,3.814,7.527c0.037,2.801-0.279,7.599-3.955,7.599c-3.713,0-3.922-5.078-3.922-7.317
		C326.131,183.612,326.936,180.217,330.193,180.217"/>
	<path fill="#1A73AC" d="M365.762,187.64c-3.115,0.141-3.852,0.141-7.107,0.104l-0.176,0.212c0.246,2.801,0.281,3.5,0.246,6.758
		c-0.596,0.14-1.051,0.209-1.682,0.209c-2.416,0-3.432-1.189-3.744-1.576c-1.402-1.61-1.543-3.922-1.543-5.217
		c0-2.31,0.523-4.726,2.346-6.197c0.945-0.77,2.451-1.33,4.168-1.33c2.662,0,4.236,1.085,5.74,2.066l0.318-0.105l0.418-5.813
		l-0.107-0.244c-1.609-0.666-3.813-1.541-7.35-1.541c-10.398,0-13.305,7.248-13.305,13.164c0,5.463,2.379,8.614,4.271,10.119
		c1.959,1.575,4.865,2.485,8.998,2.485c3.678,0,5.986-0.699,8.471-1.435l0.141-0.28c-0.035-1.856-0.068-3.677-0.068-5.531
		c0-2.032,0.033-3.328,0.139-5.672L365.762,187.64z"/>
	<path fill="#1A73AC" d="M390.617,200.035l0.139-0.316l-2.381-4.096l-3.186-6.199c1.156-0.523,2.521-1.153,3.469-3.15
		c0.383-0.805,0.803-2.029,0.803-3.711c0-3.115-1.539-4.936-2.449-5.637c-2.031-1.575-5.219-1.541-8.684-1.469l-1.82,0.033h-6.303
		l-0.174,0.176c0.244,3.256,0.383,5.285,0.383,10.888c0,4.518-0.102,9.032-0.174,13.55l0.174,0.21l7.215-0.106l0.209-0.209
		c-0.209-3.815-0.246-4.727-0.246-8.927l1.156-0.036l2.205,4.623l1.893,4.41l0.385,0.281L390.617,200.035z M377.592,186.273
		l0.07-5.813c0.42,0,1.332-0.033,1.752-0.033c2.064,0,2.834,1.191,2.834,2.73C382.248,186.345,378.887,186.31,377.592,186.273"/>
	<path fill="#1A73AC" d="M415.578,200.209l0.246-0.281l-7.109-24.366l-0.244-0.177l-8.893,0.104l-0.211,0.177l-7.631,24.297
		l0.174,0.246h6.441l0.244-0.141l1.367-5.882h6.828l1.33,5.953l0.244,0.174c1.225-0.034,2.416-0.104,3.607-0.104H415.578z
		 M401.258,189.146l0.91-3.536c0.771-2.802,0.98-3.605,1.4-5.463l1.154,5.287l0.877,3.712H401.258z"/>
	<path fill="#1A73AC" d="M438.438,185.923l1.295-4.76v5.25l0.281,13.69l0.174,0.211c2.979-0.106,3.992-0.141,6.865-0.106
		l0.207-0.209c-0.207-4.167-0.453-8.332-0.664-12.5c-0.316-5.812-0.385-7.667-0.49-11.903l-0.209-0.211l-9.49,0.105l-0.244,0.14
		c-0.352,1.507-0.734,3.011-1.121,4.517c-0.666,2.486-1.4,4.974-2.029,7.457c-0.244,0.98-0.455,1.926-0.701,2.873l-3.887-14.986
		l-0.209-0.105c-1.646,0.036-3.291,0.071-4.971,0.105h-4.727l-0.211,0.175c-0.316,11.659-0.455,14.635-1.156,24.438l0.176,0.211
		l5.848-0.106l0.242-0.209c-0.033-1.856-0.068-3.327-0.068-5.147c0-2.976,0.068-5.951,0.141-8.929l0.139-4.971l1.646,6.057
		l0.559,2.065c1.121,4.201,1.473,5.566,2.873,11.029l0.246,0.211c2.52-0.141,3.15-0.141,5.461-0.106l0.279-0.209l3.186-11.938
		L438.438,185.923z"/>
	<path fill="#1A73AC" d="M479.012,175.596l-0.209-0.211l-9.488,0.105l-0.246,0.139c-0.35,1.509-0.734,3.013-1.121,4.518
		c-0.664,2.486-1.398,4.973-2.027,7.457c-0.246,0.98-0.457,1.926-0.703,2.872l-3.885-14.985l-0.211-0.105
		c-1.646,0.035-3.291,0.072-4.971,0.105h-4.727l-0.209,0.176c-0.316,11.66-0.455,14.635-1.156,24.438l0.174,0.21l5.848-0.106
		l0.246-0.209c-0.035-1.855-0.072-3.326-0.072-5.146c0-2.976,0.072-5.952,0.143-8.931l0.139-4.971l1.645,6.058l0.561,2.065
		c1.121,4.202,1.473,5.566,2.871,11.029l0.246,0.21c2.52-0.14,3.15-0.14,5.461-0.106l0.281-0.209l3.186-11.938l0.561-2.138
		l1.295-4.76v5.252l0.279,13.689l0.174,0.21c2.979-0.106,3.992-0.14,6.865-0.106l0.209-0.209c-0.209-4.166-0.455-8.332-0.666-12.5
		C479.188,181.687,479.119,179.832,479.012,175.596"/>
	<path fill="#1A73AC" d="M492.803,175.562l-0.139-0.177c-3.432,0.141-4.168,0.141-7.598,0.105l-0.176,0.176
		c0.141,3.746,0.209,6.021,0.209,9.104c0,1.994-0.033,3.99-0.068,5.986c-0.035,3.115-0.07,6.232-0.07,9.383l0.139,0.175
		c3.467-0.14,4.309-0.14,7.633-0.104l0.141-0.175c-0.141-4.903-0.246-9.909-0.246-14.846
		C492.627,181.162,492.699,179.063,492.803,175.562"/>
	<path fill="#1A73AC" d="M519.727,175.525l-0.209-0.141l-5.709,0.105l-0.141,0.176c0.178,5.076,0.211,6.371,0.178,12.884
		c-2.732-3.886-3.467-4.901-5.43-7.563c-1.889-2.555-2.309-3.15-3.92-5.496l-0.211-0.105c-1.014,0.036-2.029,0.072-3.045,0.105
		h-3.117l-0.209,0.211c0.281,6.162,0.352,12.324,0.352,18.485c0,2.171-0.037,3.537-0.107,5.953l0.209,0.175
		c2.592-0.107,3.258-0.141,5.883-0.107l0.174-0.209l-0.488-14.144c0,0,4.971,6.652,6.514,8.822c1.855,2.558,2.064,2.836,3.955,5.497
		l0.279,0.141l4.902-0.107l0.209-0.209c-0.068-3.815-0.104-5.603-0.104-8.926C519.691,188.619,519.727,177.732,519.727,175.525"/>
	<path fill="#1A73AC" d="M544.791,187.814l-0.176-0.176c-3.115,0.143-3.852,0.143-7.107,0.104l-0.174,0.211
		c0.246,2.801,0.279,3.502,0.246,6.758c-0.596,0.14-1.051,0.21-1.682,0.21c-2.416,0-3.432-1.189-3.746-1.576
		c-1.4-1.61-1.541-3.922-1.541-5.216c0-2.311,0.525-4.727,2.348-6.198c0.943-0.77,2.449-1.33,4.164-1.33
		c2.662,0,4.236,1.084,5.742,2.066l0.314-0.105l0.42-5.812l-0.104-0.245c-1.611-0.666-3.816-1.539-7.354-1.539
		c-10.398,0-13.305,7.248-13.305,13.163c0,5.462,2.383,8.614,4.273,10.118c1.959,1.575,4.865,2.485,8.998,2.485
		c3.676,0,5.984-0.699,8.473-1.435l0.139-0.281c-0.035-1.854-0.068-3.676-0.068-5.53
		C544.652,191.456,544.686,190.16,544.791,187.814"/>
	<path fill="#1A73AC" d="M290.389,231.26c-1.295,0.526-2.592,0.771-3.886,0.771c-5.917,0-9.838-4.728-9.838-10.819
		c0-5.112,2.697-11.063,9.662-11.063c3.431,0,5.216,1.225,6.232,1.926l0.246-0.174c0.069-0.946,0.105-1.121,0.28-1.857l-0.175-0.279
		c-1.4-0.701-3.048-1.541-6.583-1.541c-8.087,0-12.078,6.513-12.078,12.989c0,6.897,4.027,12.779,11.869,12.779
		c2.24,0,4.339-0.49,5.67-1.155c0.422-0.209,0.841-0.454,1.263-0.7l0.174-0.35c0-0.979,0.035-1.191,0.175-2.066l-0.281-0.177
		C292.315,230.21,291.72,230.7,290.389,231.26"/>
	<path fill="#1A73AC" d="M305.416,208.222c-8.264,0-11.38,6.443-11.38,12.815c0,4.025,1.05,7.771,3.747,10.329
		c1.749,1.679,4.271,2.625,7.596,2.625c6.969,0,11.099-5.041,11.099-12.882C316.478,213.721,313.116,208.222,305.416,208.222
		 M309.511,231.191c-1.016,0.56-2.452,0.944-4.273,0.944c-7.281,0-8.857-6.863-8.857-11.063c0-4.482,1.751-7.669,3.396-9.14
		c1.295-1.119,3.222-1.854,5.777-1.854c0.944,0,4.237,0,6.582,3.186c1.821,2.521,1.998,6.513,1.998,7.844
		C314.168,225.694,312.558,229.581,309.511,231.191"/>
	<path fill="#1A73AC" d="M342.559,208.924l-0.244-0.279c-1.295,0.068-1.717,0.104-3.082,0.104l-0.244,0.175
		c-0.246,0.806-0.563,1.715-0.807,2.346c-0.209,0.664-1.26,3.641-1.471,4.271l-5.393,16.245l-5.391-17.61
		c-0.734-2.453-1.574-5.113-1.609-5.287l-0.246-0.211c-1.469,0.071-1.715,0.071-3.221,0.071l-0.176,0.175
		c-0.07,3.256-0.104,3.746-0.314,8.053l-0.418,7.667c-0.106,1.4-0.177,2.835-0.283,4.236c-0.103,1.994-0.174,3.012-0.313,4.343
		l0.21,0.278c0.909-0.034,1.259-0.034,1.925-0.034l0.209-0.244c0.035-3.013,0.072-3.713,0.316-9.98l0.559-12.85l4.691,15.371
		c0.664,2.204,0.807,2.696,2.102,7.003l0.139,0.456l0.246,0.244c1.365-0.035,1.574-0.035,2.836,0l0.279-0.211
		c0.701-2.135,1.822-5.566,2.521-7.667l5.148-15.65l0.279,15.056c0.033,1.54,0.068,2.8,0.068,4.201v4.095l0.209,0.245
		c0.912-0.068,1.158-0.068,2.139-0.068l0.174-0.244c-0.314-5.077-0.455-10.154-0.559-13.061L342.559,208.924z"/>
	<path fill="#1A73AC" d="M355.23,208.645l-1.225,0.033l-4.623,0.105l-0.244,0.176c0.174,3.499,0.174,3.711,0.244,8.332
		c0,1.646,0.105,8.998,0.105,10.47c0,2.03-0.035,3.324-0.07,5.529l0.176,0.245l2.17-0.068l0.176-0.211
		c-0.141-3.675-0.176-4.866-0.213-9.837h0.809c3.465-0.036,7.037-0.105,9.418-1.998c1.26-1.014,2.66-2.87,2.66-5.741
		c0-2.484-1.084-4.13-2.102-5.076C360.445,208.713,357.996,208.678,355.23,208.645 M361.078,219.182
		c-1.926,2.381-4.412,2.381-9.418,2.381V210.57l1.33-0.036c0.699,0,1.365-0.036,2.029-0.036c1.926,0,4.307,0.105,5.777,1.506
		c0.563,0.49,1.469,1.645,1.469,3.605C362.266,216.906,361.918,218.131,361.078,219.182"/>
	<path fill="#1A73AC" d="M373.889,231.575h-3.045l-0.176-10.083h3.326c1.189-0.035,2.381-0.035,3.57-0.035
		c1.402,0,2.313,0.035,3.713,0.07l0.314-0.174l0.07-1.576l-0.211-0.21l-7.354,0.069h-3.463v-9.033l1.994,0.035l9.207,0.104
		l0.281-0.209l0.104-1.681l-0.209-0.176l-4.936,0.071h-6.268l-2.449-0.036l-0.213,0.211c0.213,6.336,0.316,12.674,0.316,19.011
		c0,1.856-0.035,3.187-0.07,5.427l0.244,0.245l2.838-0.14h10.678l0.141-0.105l0.139-1.715l-0.139-0.21L373.889,231.575z"/>
	<path fill="#1A73AC" d="M395.35,208.749h-8.299l-3.604-0.104l-0.246,0.174l-0.139,1.716l0.244,0.209l7.422-0.14
		c0.033,3.886,0.068,7.808,0.068,11.729c0,3.642-0.035,7.316-0.068,10.957l0.246,0.211l2.1-0.034l0.209-0.244
		c-0.246-9.84-0.279-12.396-0.279-22.653c3.816,0,4.621,0.069,7.213,0.174l0.209-0.174l0.141-1.751l-0.209-0.174L395.35,208.749z"/>
	<path fill="#1A73AC" d="M405.746,208.889l-0.211-0.211l-2.17,0.071l-0.209,0.174c0.244,5.917,0.314,14.146,0.314,18.732
		c0,2.238-0.035,3.641-0.07,5.635l0.209,0.211l2.172-0.034l0.211-0.21c-0.176-6.653-0.281-10.154-0.281-16.176
		C405.711,214.352,405.746,211.618,405.746,208.889"/>
	<path fill="#1A73AC" d="M420.871,208.749h-8.297l-3.607-0.104l-0.246,0.174l-0.139,1.716l0.244,0.209l7.424-0.14
		c0.033,3.886,0.068,7.808,0.068,11.729c0,3.642-0.035,7.316-0.068,10.957l0.244,0.211l2.1-0.034l0.211-0.244
		c-0.246-9.84-0.281-12.396-0.281-22.653c3.816,0,4.623,0.069,7.213,0.174l0.211-0.174l0.139-1.751l-0.209-0.174L420.871,208.749z"
		/>
	<path fill="#1A73AC" d="M430.566,208.889l-0.211-0.211l-2.17,0.071l-0.209,0.174c0.244,5.917,0.314,14.146,0.314,18.732
		c0,2.238-0.037,3.641-0.07,5.635l0.209,0.211l2.172-0.034l0.211-0.21c-0.176-6.653-0.281-10.154-0.281-16.176
		C430.531,214.352,430.566,211.618,430.566,208.889"/>
	<path fill="#1A73AC" d="M446.32,208.222c-8.262,0-11.379,6.443-11.379,12.815c0,4.025,1.053,7.771,3.746,10.329
		c1.752,1.679,4.273,2.625,7.6,2.625c6.967,0,11.098-5.041,11.098-12.882C457.385,213.721,454.023,208.222,446.32,208.222
		 M450.418,231.191c-1.018,0.56-2.451,0.944-4.273,0.944c-7.283,0-8.857-6.863-8.857-11.063c0-4.482,1.752-7.669,3.396-9.14
		c1.297-1.119,3.221-1.854,5.777-1.854c0.945,0,4.236,0,6.582,3.186c1.82,2.521,1.996,6.513,1.996,7.844
		C455.072,225.694,453.463,229.581,450.418,231.191"/>
	<path fill="#1A73AC" d="M479.404,208.818l-0.213-0.174l-1.852,0.069l-0.176,0.175c0.279,8.997,0.314,11.833,0.385,22.792
		l-7.318-12.987c-1.715-2.908-3.082-5.218-4.168-7.109c-0.873-1.541-0.91-1.609-1.609-2.73l-0.314-0.209l-3.082,0.069l-0.209,0.209
		c0.174,6.828,0.281,10.783,0.281,16.526c0,2.625-0.037,5.218-0.037,7.842l0.211,0.21l1.857-0.034l0.209-0.245
		c-0.176-5.461-0.209-6.198-0.246-12.325c-0.035-3.467-0.07-6.931-0.105-10.397l9.699,17.19c1.926,3.326,2.766,4.761,3.326,5.637
		l0.281,0.175l3.113-0.069l0.211-0.21c-0.244-5.776-0.314-12.99-0.314-18.871C479.334,212.109,479.369,210.638,479.404,208.818"/>
	<path fill="#E2722C" d="M136.284,117.004l-0.247-0.311c-6.089,0.248-7.394,0.248-13.482,0.186l-0.311,0.312
		c0.249,6.646,0.373,10.685,0.373,16.151c0,3.541-0.062,7.084-0.124,10.625c-0.062,5.528-0.124,11.057-0.124,16.647l0.248,0.313
		c6.152-0.25,7.643-0.25,13.542-0.188l0.251-0.31c-0.251-8.698-0.435-17.582-0.435-26.342
		C135.975,126.943,136.097,123.215,136.284,117.004"/>
	<path fill="#E2722C" d="M159.019,151.172v-8.573h12.923l0.435-0.372l0.497-8.139l-0.373-0.436l-13.606,0.248v-7.891h14.352
		l0.373-0.31l0.433-8.573l-0.309-0.248h-27.957l-0.373,0.373c0.311,6.336,0.435,8.883,0.435,23.793
		c0,8.449-0.062,12.302-0.25,19.444l0.312,0.437c5.903-0.125,9.444-0.248,16.278-0.248c1.864,0,3.291,0.062,11.802,0.062
		l0.561-0.373l0.62-9.194l-0.373-0.371C168.401,151.047,163.864,151.172,159.019,151.172"/>
	<path fill="#E2722C" d="M195.237,151.172v-8.573h12.921l0.437-0.372l0.496-8.139l-0.372-0.436l-13.606,0.248v-7.891h14.35
		l0.375-0.31l0.432-8.573l-0.308-0.248h-27.957l-0.373,0.373c0.311,6.336,0.433,8.883,0.433,23.793
		c0,8.449-0.06,12.302-0.248,19.444l0.311,0.437c5.902-0.125,9.445-0.248,16.276-0.248c1.864,0,3.294,0.062,11.805,0.062
		l0.558-0.373l0.623-9.194l-0.374-0.371C204.617,151.047,200.082,151.172,195.237,151.172"/>
	<path fill="#E2722C" d="M320.4,115.254l-9.179,0.19h-15.214l-6.611-0.19l-0.075,0.052l2.367-3.021
		c2.163-2.661,5.487-7.067,7.651-9.646l-0.332-0.832c-6.154,0.25-7.817,0.25-13.14,0.167l-0.665,0.583
		c-0.913,1.33-1.828,2.744-2.743,4.072c-1.415,2.078-7.901,10.977-9.146,12.808l-4.825-17.214l-0.498-0.582l-14.885,0.582
		l-0.498,0.666l4.989,13.471l5.155,14.053l-14.636,18.627l-1.43,1.795c-5.935,0.224-10.29,0.338-14.908,0.338v-8.573h12.92
		l0.437-0.372l0.497-8.139l-0.373-0.436l-13.605,0.248v-7.891h14.349l0.375-0.31l0.433-8.573l-0.309-0.248h-27.957l-0.373,0.373
		c0.311,6.336,0.433,8.883,0.433,23.793c0,8.449-0.06,12.302-0.247,19.444l0.311,0.437c0.297-0.006,0.583-0.012,0.869-0.019
		l0.013,0.019c5.127-0.108,8.204-0.215,14.141-0.215c1.62,0,2.861,0.053,10.257,0.053l0.016-0.012
		c0.793-0.004,1.52-0.008,2.241-0.014c0.184,0,0.352,0.001,0.543,0.001l0.005-0.003c1.849-0.011,3.749-0.012,6.685,0.027
		l0.665-0.416c2.495-3.658,3.41-5.072,6.486-9.313l6.403-8.647l2.993,9.811l2.495,8.317l0.582,0.497
		c5.904-0.248,7.734-0.33,14.802-0.248l0.499-0.748c-2.828-7.068-3.242-8.232-5.737-14.719l-5.406-14.551l9.14-11.662l16.388-0.237
		c0.063,7.125,0.129,14.315,0.129,21.505c0,6.676-0.065,13.415-0.129,20.092l0.447,0.385l3.854-0.064l0.385-0.448
		c-0.449-18.039-0.516-22.726-0.516-41.533c6.999,0,8.475,0.13,13.225,0.321l0.387-0.321l0.256-3.209L320.4,115.254z"/>
	<path fill="#E2722C" d="M327.326,160.443l0.385,0.385l3.916-0.064l0.387-0.385c-0.387-8.922-0.387-11.361-0.449-20.285l5.842-0.063
		c0.832,1.025,1.219,1.475,5.84,7.637c5.779,7.705,6.418,8.539,9.502,12.84l0.641,0.384c0.834-0.063,1.604-0.128,2.439-0.192h2.119
		l0.256-0.578c-1.09-1.348-5.906-7.51-6.869-8.793c-1.475-1.862-2.887-3.724-4.363-5.649l-4.688-6.163
		c2.826-0.385,6.355-0.963,9.373-4.107c1.861-1.861,3.402-4.877,3.402-8.346c0-1.091-0.193-8.408-7.447-10.977
		c-2.695-0.897-5.711-0.961-11.105-0.897l-9.242,0.192l-0.387,0.385c0.449,11.489,0.58,23.045,0.58,34.6
		C327.457,154.022,327.457,156.014,327.326,160.443 M331.5,118.783c2.824-0.064,5.135-0.192,7.574-0.192
		c3.594,0,11.746,0,11.746,8.536c0,5.457-3.529,7.445-5.584,8.281c-2.889,1.154-5.842,1.284-13.736,1.349V118.783z"/>
	<path fill="#E2722C" d="M364.746,160.571l0.449,0.448l5.199-0.256h19.58l0.254-0.192l0.258-3.146l-0.258-0.386l-15.406,0.259
		h-5.584l-0.322-18.488h6.1c2.182-0.063,4.365-0.063,6.547-0.063c2.568,0,4.238,0.063,6.805,0.128l0.578-0.322l0.129-2.888
		l-0.387-0.386l-13.479,0.129h-6.355v-16.563l3.658,0.065l16.883,0.192l0.514-0.385l0.193-3.082l-0.387-0.32l-9.051,0.129h-11.488
		l-4.494-0.064l-0.387,0.385c0.387,11.619,0.578,23.237,0.578,34.855C364.873,154.023,364.809,156.463,364.746,160.571"/>
	<path fill="#E2722C" d="M401.842,160.764l0.385-0.448c0.064-5.521,0.131-6.805,0.578-18.295l1.025-23.56l8.604,28.18
		c1.219,4.045,1.477,4.943,3.85,12.839l0.258,0.836l0.449,0.448c2.506-0.064,2.889-0.064,5.201,0l0.512-0.385
		c1.285-3.916,3.338-10.205,4.623-14.059l9.436-28.693l0.516,27.603c0.063,2.825,0.127,5.136,0.127,7.702v7.512l0.385,0.448
		c1.67-0.128,2.119-0.128,3.916-0.128l0.322-0.448c-0.58-9.31-0.836-18.618-1.027-23.944l-0.516-20.605l-0.447-0.512
		c-2.377,0.127-3.145,0.191-5.65,0.191l-0.447,0.32c-0.451,1.477-1.029,3.146-1.479,4.301c-0.385,1.221-2.309,6.676-2.695,7.831
		l-9.887,29.785l-9.885-32.287c-1.348-4.495-2.887-9.374-2.951-9.694l-0.451-0.385c-2.695,0.129-3.145,0.129-5.906,0.129l-0.32,0.32
		c-0.127,5.971-0.193,6.869-0.578,14.766l-0.768,14.057c-0.193,2.568-0.322,5.197-0.516,7.767c-0.193,3.659-0.32,5.521-0.578,7.961
		l0.385,0.513C399.982,160.764,400.623,160.764,401.842,160.764"/>
	<path fill="#E2722C" d="M452.994,160.571l0.449,0.448l5.199-0.256h19.578l0.256-0.192l0.258-3.146l-0.258-0.386l-15.404,0.259
		h-5.586l-0.32-18.488h6.098c2.184-0.063,4.365-0.063,6.547-0.063c2.57,0,4.238,0.063,6.805,0.128l0.578-0.322l0.129-2.888
		l-0.387-0.386l-13.479,0.129h-6.355v-16.563l3.66,0.065l16.881,0.192l0.514-0.385l0.193-3.082l-0.385-0.32l-9.051,0.129h-11.492
		l-4.494-0.064l-0.383,0.385c0.383,11.619,0.576,23.237,0.576,34.855C453.121,154.023,453.059,156.463,452.994,160.571"/>
</g>
<rect x="71.233" y="254.858" fill="none" width="474.052" height="41.489"/>
<text transform="matrix(1 0 0 1 127.0991 282.2178)" fill="#1A73AC" font-family="'Verdana'" font-size="36">Practice Community</text>
</svg>
